# xmcd CD database file
#
# Track frame offsets:
#	225
#	24110
#	45679
#	68203
#	95968
#	141033
#	178769
#	195470
#
# Disc length: 3312 seconds
#
# Revision: 0
# Processed by: cddbd v1.4PL0 Copyright (c) Steve Scherf et al.
# Submitted via: CDex 1.51
#
DISCID=6c0ced08
DTITLE=Gabor Gado - One glimpse is not enough
DYEAR=1999
DGENRE=Jazz
TTITLE0=33rd (song for my Mother)
TTITLE1=ReConstruction
TTITLE2=Special time
TTITLE3=Time will tell
TTITLE4=Champs Elysées affair
TTITLE5=Jonathan Livingstone
TTITLE6=One glimpse is not enough
TTITLE7=Deep feelings from home
EXTD=YEAR: 1999
EXTT0=
EXTT1=
EXTT2=
EXTT3=
EXTT4=
EXTT5=
EXTT6=
EXTT7=
PLAYORDER=
